<?xml version="1.0" standalone="no"?>
<!DOCTYPE svg PUBLIC "-//W3C//DTD SVG 20010904//EN"
 "http://www.w3.org/TR/2001/REC-SVG-20010904/DTD/svg10.dtd">
<svg version="1.0" xmlns="http://www.w3.org/2000/svg"
 width="116.000000pt" height="119.000000pt" viewBox="0 0 116.000000 119.000000"
 preserveAspectRatio="xMidYMid meet">

<g transform="translate(0.000000,119.000000) scale(0.100000,-0.100000)"
fill="#000000" stroke="none">
<path d="M550 1148 c-33 -20 -55 -33 -134 -77 -19 -11 -53 -31 -75 -45 -22
-15 -43 -26 -46 -26 -3 0 -22 -11 -43 -23 -20 -13 -63 -39 -94 -58 l-58 -33 0
-281 1 -280 79 -44 c44 -24 150 -86 237 -137 87 -52 165 -94 173 -94 9 0 42
16 74 35 32 19 60 35 61 35 2 0 74 42 162 93 87 51 166 96 176 100 16 6 17 31
17 291 l0 284 -32 20 c-30 18 -76 45 -133 76 -11 6 -31 18 -45 27 -14 9 -59
35 -100 59 -41 23 -97 56 -123 71 -27 16 -51 29 -55 29 -4 0 -23 -10 -42 -22z
m133 -211 c40 -24 106 -63 148 -87 l77 -43 5 -86 c3 -47 4 -133 3 -190 -3 -90
-6 -107 -22 -118 -26 -19 -254 -153 -281 -165 -18 -9 -46 4 -182 82 l-161 91
0 189 0 189 55 36 c31 19 57 35 59 35 2 0 46 25 97 55 51 30 101 55 112 55 10
0 51 -19 90 -43z"/>
</g>
</svg>
