<?xml version="1.0" standalone="no"?>
<!DOCTYPE svg PUBLIC "-//W3C//DTD SVG 20010904//EN"
 "http://www.w3.org/TR/2001/REC-SVG-20010904/DTD/svg10.dtd">
<svg version="1.0" xmlns="http://www.w3.org/2000/svg"
 width="100.000000pt" height="91.000000pt" viewBox="0 0 100.000000 91.000000"
 preserveAspectRatio="xMidYMid meet">

<g transform="translate(0.000000,91.000000) scale(0.100000,-0.100000)"
fill="#000000" stroke="none">
<path d="M403 850 c-56 -41 -146 -170 -130 -186 8 -8 197 112 203 128 7 23 21
23 28 0 10 -31 74 -57 130 -54 44 3 111 -7 169 -24 35 -11 16 26 -35 67 -81
64 -149 91 -243 96 -77 5 -82 4 -122 -27z"/>
<path d="M295 834 c-90 -47 -162 -127 -202 -225 -24 -58 -24 -61 -8 -109 17
-50 89 -160 106 -160 5 0 9 20 9 45 0 35 -4 47 -21 56 l-21 11 21 14 c18 13
21 25 21 81 0 58 3 67 25 85 14 11 25 26 25 33 0 27 47 120 73 144 15 13 24
28 21 32 -7 12 -15 11 -49 -7z"/>
<path d="M414 711 c-34 -21 -89 -54 -123 -72 l-61 -34 0 -152 0 -152 120 -71
c65 -39 125 -73 132 -75 7 -3 69 28 138 68 l125 72 3 155 2 156 -126 72 c-69
39 -131 72 -138 71 -6 0 -39 -17 -72 -38z m191 -57 l115 -67 0 -136 0 -136
-115 -67 -114 -67 -116 67 -115 67 0 136 0 136 113 66 c61 36 113 66 114 66 2
1 55 -29 118 -65z"/>
<path d="M660 704 c0 -5 25 -20 55 -33 76 -32 145 -109 181 -201 l27 -70 22
20 c12 11 28 20 35 20 8 0 -1 15 -20 34 -25 24 -42 55 -59 106 -23 71 -23 72
-79 98 -57 26 -162 43 -162 26z"/>
<path d="M780 537 c0 -45 4 -59 21 -71 l21 -14 -22 -12 c-22 -12 -22 -17 -17
-90 6 -71 -1 -143 -19 -210 l-7 -25 28 25 c15 14 45 52 66 84 31 47 39 68 39
105 0 85 -43 204 -89 245 l-21 19 0 -56z"/>
<path d="M32 475 l-22 -28 29 -33 c16 -18 32 -46 35 -62 4 -16 20 -39 37 -51
35 -26 148 -81 167 -81 24 0 11 15 -34 39 -58 31 -117 98 -158 180 l-33 64
-21 -28z"/>
<path d="M628 195 c-72 -43 -128 -82 -128 -90 0 -8 -4 -15 -10 -15 -5 0 -10 7
-10 15 0 25 -81 67 -165 86 -45 9 -107 30 -138 45 -31 15 -59 25 -63 22 -9 -9
49 -89 90 -126 110 -97 258 -134 391 -98 88 23 111 40 133 98 18 50 38 138 30
138 -1 0 -60 -34 -130 -75z"/>
</g>
</svg>
