<?xml version="1.0" standalone="no"?>
<!DOCTYPE svg PUBLIC "-//W3C//DTD SVG 20010904//EN"
 "http://www.w3.org/TR/2001/REC-SVG-20010904/DTD/svg10.dtd">
<svg version="1.0" xmlns="http://www.w3.org/2000/svg"
 width="108.000000pt" height="154.000000pt" viewBox="0 0 108.000000 154.000000"
 preserveAspectRatio="xMidYMid meet">

<g transform="translate(0.000000,154.000000) scale(0.100000,-0.100000)"
fill="#000000" stroke="none">
<path d="M531 1384 c-5 -22 -15 -58 -21 -82 -37 -142 -123 -335 -202 -450 -17
-26 -71 -87 -120 -137 -48 -49 -84 -92 -80 -95 4 -4 45 -32 92 -62 47 -31 114
-85 150 -120 64 -64 150 -168 150 -182 0 -12 40 -66 49 -66 5 0 25 28 46 62
77 126 166 217 301 307 l102 68 -77 70 c-147 134 -278 372 -341 619 -13 49
-27 93 -31 98 -4 5 -12 -9 -18 -30z m84 -611 c90 -135 89 -113 10 -185 -38
-35 -74 -63 -81 -63 -22 0 -147 128 -138 141 31 41 112 164 124 188 13 25 16
26 25 11 5 -10 33 -51 60 -92z"/>
</g>
</svg>
