<?xml version="1.0" standalone="no"?>
<!DOCTYPE svg PUBLIC "-//W3C//DTD SVG 20010904//EN"
 "http://www.w3.org/TR/2001/REC-SVG-20010904/DTD/svg10.dtd">
<svg version="1.0" xmlns="http://www.w3.org/2000/svg"
 width="120.000000pt" height="116.000000pt" viewBox="0 0 120.000000 116.000000"
 preserveAspectRatio="xMidYMid meet">

<g transform="translate(0.000000,116.000000) scale(0.100000,-0.100000)"
fill="#000000" stroke="none">
<path d="M557 1076 c-12 -13 -47 -49 -77 -81 l-55 -57 -66 5 c-41 2 -85 13
-114 27 -59 29 -72 18 -44 -39 11 -24 23 -74 26 -112 l6 -69 -77 -77 c-42 -43
-76 -85 -76 -94 0 -9 34 -52 76 -95 l77 -78 -6 -79 c-4 -44 -11 -85 -16 -91
-5 -6 -12 -26 -16 -44 l-7 -33 44 22 c30 16 66 24 123 27 l80 4 50 -53 c28
-30 65 -67 82 -82 l32 -29 83 81 c81 80 82 81 133 81 46 0 145 -27 162 -43 12
-13 23 -7 23 12 0 11 -4 22 -8 25 -8 5 -23 65 -37 149 -6 37 -4 41 79 126 47
48 86 92 86 98 0 7 -38 50 -84 96 l-84 85 5 48 c5 61 23 133 34 140 8 4 13 44
7 44 -2 0 -30 -11 -63 -25 -37 -15 -80 -25 -113 -25 -53 0 -53 0 -134 80 -44
44 -87 80 -95 80 -8 0 -24 -11 -36 -24z m67 -81 c4 -12 -3 -15 -31 -15 -30 0
-34 2 -23 15 7 8 20 15 30 15 10 0 20 -7 24 -15z m-290 -111 c22 -9 20 -17
-14 -52 l-30 -32 0 45 c0 46 8 53 44 39z m566 -32 c0 -42 -10 -46 -42 -15 -37
35 -35 43 7 43 32 0 35 -3 35 -28z m-188 -37 c83 -43 148 -144 148 -234 0 -96
-60 -198 -141 -239 -26 -12 -73 -24 -114 -27 -63 -6 -75 -4 -120 20 -68 36
-102 70 -131 131 -66 138 5 305 153 360 48 18 159 12 205 -11z m312 -221 c3
-8 1 -25 -6 -37 l-11 -22 -10 22 c-10 23 -4 53 12 53 5 0 12 -7 15 -16z m-834
-14 c0 -11 -4 -20 -9 -20 -11 0 -22 26 -14 34 12 12 23 5 23 -14z m140 -265
c26 -28 20 -41 -20 -47 -15 -2 -25 2 -24 10 1 6 2 23 3 37 1 32 11 32 41 0z
m572 -12 c3 -21 5 -39 4 -39 -5 -7 -66 11 -66 19 0 12 40 57 51 57 4 0 9 -17
11 -37z m-292 -148 c-10 -12 -16 -13 -26 -4 -20 16 -18 19 12 19 22 0 25 -2
14 -15z"/>
</g>
</svg>
