<?xml version="1.0" standalone="no"?>
<!DOCTYPE svg PUBLIC "-//W3C//DTD SVG 20010904//EN"
 "http://www.w3.org/TR/2001/REC-SVG-20010904/DTD/svg10.dtd">
<svg version="1.0" xmlns="http://www.w3.org/2000/svg"
 width="82.000000pt" height="82.000000pt" viewBox="0 0 82.000000 82.000000"
 preserveAspectRatio="xMidYMid meet">

<g transform="translate(0.000000,82.000000) scale(0.100000,-0.100000)"
fill="#000000" stroke="none">
<path d="M345 701 c-16 -10 -73 -44 -127 -75 -65 -39 -98 -64 -101 -79 -3 -12
-4 -85 -2 -162 4 -163 -11 -140 160 -240 l115 -67 123 72 c67 39 129 78 137
86 12 11 15 43 17 142 2 198 11 179 -136 267 -69 41 -133 75 -141 75 -8 0 -28
-9 -45 -19z m158 -88 c151 -86 146 -75 83 -183 -68 -114 -68 -114 -115 -130
-33 -10 -46 -10 -71 0 -63 26 -80 93 -34 129 35 27 58 28 51 1 -3 -11 -1 -23
4 -26 11 -7 118 16 125 27 4 7 -39 104 -53 119 -3 3 -11 -4 -19 -15 -11 -14
-27 -20 -59 -21 -79 -2 -145 -65 -145 -138 0 -71 74 -142 155 -150 20 -1 29
-7 27 -17 -6 -24 -43 -79 -54 -79 -9 0 -38 16 -183 99 -27 16 -51 36 -53 44
-2 8 25 61 59 118 34 57 70 118 79 134 53 92 65 112 78 128 8 9 17 17 20 17 2
0 50 -26 105 -57z"/>
</g>
</svg>
