<?xml version="1.0" standalone="no"?>
<!DOCTYPE svg PUBLIC "-//W3C//DTD SVG 20010904//EN"
 "http://www.w3.org/TR/2001/REC-SVG-20010904/DTD/svg10.dtd">
<svg version="1.0" xmlns="http://www.w3.org/2000/svg"
 width="78.000000pt" height="98.000000pt" viewBox="0 0 78.000000 98.000000"
 preserveAspectRatio="xMidYMid meet">

<g transform="translate(0.000000,98.000000) scale(0.100000,-0.100000)"
fill="#000000" stroke="none">
<path d="M226 762 c-28 -10 -56 -28 -65 -42 -15 -23 -15 -24 4 -15 11 4 49 16
85 25 40 11 65 23 65 31 0 20 -33 20 -89 1z"/>
<path d="M456 765 c-4 -10 3 -17 22 -21 15 -3 51 -12 81 -20 29 -9 55 -13 57
-11 11 10 -29 42 -67 54 -58 17 -86 16 -93 -2z"/>
<path d="M285 722 c-37 -6 -115 -33 -120 -42 -3 -4 7 -34 21 -65 24 -53 26
-65 22 -156 l-5 -98 46 -44 c25 -24 67 -61 93 -82 l48 -37 36 27 c21 16 64 53
97 84 l59 56 -10 70 c-12 78 -6 127 26 199 12 27 21 50 20 51 -2 2 -25 10 -53
20 -46 16 -225 27 -280 17z"/>
<path d="M124 645 c-3 -13 1 -46 10 -72 20 -58 20 -128 2 -181 -13 -37 -13
-42 4 -57 17 -15 19 -14 36 32 29 74 25 174 -8 246 -15 31 -29 57 -32 57 -3 0
-8 -11 -12 -25z"/>
<path d="M610 618 c-13 -29 -25 -74 -28 -99 -5 -53 13 -148 33 -175 13 -18 15
-18 30 -3 13 13 15 21 6 37 -20 38 -24 126 -8 183 15 51 13 109 -3 109 -4 0
-18 -24 -30 -52z"/>
<path d="M186 343 c-15 -15 -3 -42 37 -79 74 -70 155 -134 169 -134 25 0 218
178 212 195 -10 24 -22 18 -77 -34 -115 -108 -126 -115 -151 -101 -13 6 -59
45 -103 86 -44 40 -83 70 -87 67z"/>
</g>
</svg>
